<?xml version="1.0" standalone="no"?><!DOCTYPE svg PUBLIC "-//W3C//DTD SVG 1.1//EN" "http://www.w3.org/Graphics/SVG/1.1/DTD/svg11.dtd"><svg t="1713098477822" class="icon" viewBox="0 0 1024 1024" version="1.1" xmlns="http://www.w3.org/2000/svg" p-id="4252" xmlns:xlink="http://www.w3.org/1999/xlink" width="200" height="200"><path d="M640 972.8H384c-230.4 0-332.8-98.133333-332.8-332.8V384c0-230.4 98.133333-332.8 332.8-332.8h256c230.4 0 332.8 98.133333 332.8 332.8v256c0 230.4-102.4 332.8-332.8 332.8z m-256-853.333333C187.733333 119.466667 119.466667 187.733333 119.466667 384v256c0 196.266667 68.266667 268.8 268.8 268.8h256c196.266667 0 268.8-68.266667 268.8-268.8V384c0-196.266667-68.266667-268.8-268.8-268.8H384z" fill="#17191C" p-id="4253"></path><path d="M320 716.8c-17.066667 0-34.133333-12.8-34.133333-34.133333V341.333333c0-17.066667 12.8-34.133333 34.133333-34.133333h85.333333c64 0 119.466667 51.2 119.466667 119.466667s-51.2 119.466667-119.466667 119.466666H354.133333V682.666667c0 17.066667-17.066667 34.133333-34.133333 34.133333z m34.133333-234.666667h55.466667c29.866667 0 55.466667-25.6 55.466667-55.466666s-25.6-55.466667-55.466667-55.466667H354.133333v110.933333zM648.533333 704H597.333333c-17.066667 0-34.133333-12.8-34.133333-34.133333s17.066667-29.866667 34.133333-29.866667h51.2c8.533333 0 21.333333-8.533333 21.333334-21.333333 0-8.533333-8.533333-17.066667-21.333334-17.066667-46.933333 0-85.333333-38.4-85.333333-85.333333s38.4-85.333333 85.333333-85.333334h55.466667c17.066667 0 34.133333 12.8 34.133333 34.133334s-12.8 34.133333-34.133333 34.133333h-55.466667c-12.8 0-21.333333 12.8-21.333333 21.333333 0 12.8 12.8 21.333333 21.333333 21.333334 46.933333 0 85.333333 38.4 85.333334 81.066666s-38.4 81.066667-85.333334 81.066667z" fill="#17191C" p-id="4254"></path></svg>